<?xml version="1.0" encoding="utf-8"?>
<!-- Generator: Adobe Illustrator 18.0.0, SVG Export Plug-In . SVG Version: 6.00 Build 0)  -->
<!DOCTYPE svg PUBLIC "-//W3C//DTD SVG 1.1//EN" "http://www.w3.org/Graphics/SVG/1.1/DTD/svg11.dtd">
<svg version="1.1" id="Layer_1" xmlns="http://www.w3.org/2000/svg" xmlns:xlink="http://www.w3.org/1999/xlink" x="0px" y="0px"
	 viewBox="0 0 225.7 218.3" style="enable-background:new 0 0 225.7 218.3;" xml:space="preserve">
<style type="text/css">
	.st0{fill:#ED1C24;}
	.st1{fill:#0DB14B;}
	.st2{fill:#0072BC;}
	.st3{fill:#EB2D2E;}
	.st4{fill:#FDE92B;stroke:#FDE92B;}
	.st5{fill:none;stroke:#0DB14B;stroke-width:7;}
</style>
<g>
	<path class="st0" d="M102.8,71.1l-0.7-3.3c0,0-0.5-1-1.1-2c-0.7-1-0.7-1-0.7-1s2.4-1.3,4.6-2.8c2.1-1.5,3.1-2.4,3.1-2.4l0.7-3.3
		l-2.3-4.7c0,0,3.1-0.8,4.6-0.3c1.5,0.5,2.4,0.7,2.4,0.7l3.3-5.4l4.6,5.2c0,0,2.6-1.5,4.7-1.3c2.1,0.2,2.6,0,2.6,0l-3.3,5.9l0.3,3.9
		c0,0,4.6,5.9,5.9,8.1c1.3,2.3,1.1,7.2,1.1,7.2l-2.4-1.6c0,0,1,5.7,2.3,8.5c1.3,2.8,2.4,5,2.4,5l-2.9,0.8l-1.3-1c0,0,2.1,4.6,3.1,6
		c1,1.5,1.1,2.6,1.1,2.6s-3.3,0-3.6,2c-0.5,3.9,3.1,5.9,3.9,8.1c0.8,2.3,1.5,3.1,1.5,3.1s4.4-0.7,2.9-8.8
		c-1.5-8.1-2.8-14.2-2.3-17.3c0.5-3.1-0.7-10.3,0-12.2c0.7-2,1.5-4.4,1.5-4.4l2.9,0.8c0,0,2.3,5.4,3.7,7.5c1.5,2.1-1.5,6.5-1,8.8
		c0.5,2.3-2.3,4.9-2.3,4.9s4.7,18.7,2.9,22.3c-1.8,3.6-5.2,7.3-9.8,5.4c0,0-6.4,3.6-2.3,8.1c4.1,2.8,9.4,4.9-2,11.4
		c-11.4,6.5-11.2,10.9-13.2,10.1c-2-0.8-2.8-2.3-4.2-1.5c-1.5,0.8,0-6.8,1.3-7.3c1.3-0.5,11.4-5.7,11.1-7.5
		c-0.3-1.8-7.8-6.7-7.8-6.7s1.3,6.5-0.3,7.8c-2.9,2.1-7.8,0.5-12.1,0c-4.2-0.5-8.6-0.3-9-1.1c-0.3-0.8-1.8-3.4-0.2-4.9
		c1.6-1.5-1.3-0.8-1.3-0.8s2.6-2.6,7-1.3c4.4,1.3,5.5,2,7.2,2c1.6,0,2.6-0.7,2.6-0.7s-6.4-4.6-5.9-9.4c0.5-4.9,4.2-10.4,4.2-10.4
		s-0.7-0.8-0.7-3.1c0-2.3,0-3.4,0-3.4s-9,0.3-11.4,1.6c-2.4,1.3-7.8,4.2-10.4,1c-2.6-3.3,1.8-5.2,3.3-5.4c1.5-0.2,1.1-2.3,7.3-1.8
		c1.1,0.5,4.1-2.3,4.1-2.3s-2.3-0.3-3.9,0.2c-1.6,0.5-4.9,1.6-9.3,2.1c-4.4,0.5-6.2,1.1-6.2,1.1s-1.3-2.3,0.8-2.1
		c2.1,0.2-2,0-1.5-2.3c0.5-2.3,3.7-2.4,3.7-2.4l0.5-1.6l-5.7-1.3L80.8,82l7.5-1.3l3.4-17.9l1.5-1.6l0.5,2.3L92,80.8l6.7,1l-0.2,2.4
		l-5.5,1c0,0,0.2,0.8,1,0.7c0.8-0.2,5.2-1.1,7.3-1.3c2.1-0.2,2.3,0,4.7-2.3c2.4-2.3,5.7-3.3,5.7-3.3l-0.2-1.8c0,0-1.1,1.6-3.9,1.3
		c-2.8-0.3-2.8-0.7-2.9-2.9c-2-1.5-0.2-3.9-0.2-3.9l1.3,1.5c0,0,1.6-0.8,2.6-0.7c1,0.2,1.8,0.2,1.8,0.2s-1.1-0.7-1.6-1.6
		c-0.5-1-0.8-2-0.8-2s-0.7,0.3-1.8,0c-1.1-0.3-1.1-0.3-1.1-0.3L102.8,71.1z"/>
	<path class="st1" d="M157.8,176.7l-5.3-1.5c0,0,1.7-2.2,4.8-2.2c4.3-0.3,5.3,1.5,5.3,1.5s1.3,0.8,1.2-0.3c-0.2-1.2-1.2-4.3-1-6.2
		c0.2-1.8,1.5-9.5,1.5-9.5s3.3-0.3,3.3,1.3s-0.8,7.2-0.8,9c0,1.8,0,5.2,0,5.2s2.2,0.3,5.7-0.2s5.7,0.3,5.7,0.3l-3.3,2.2l9.5,0.3
		c0,0-2.2,3.3-17.3,3c-15.2-0.3-15.3-0.7-15.3-0.7L157.8,176.7z"/>
	<path class="st2" d="M158,144c0,0-2-5.5-2.2-7.3c-0.2-1.8-1.7-6.3-1.7-6.3s4.7-1.2,5.8-0.8s3.8,0,4.3,0.7c0.5,0.7,0.5,0.7,0.5,0.7
		s1.2-0.5,2.8-0.2c1.7,0.3,5.3,0.3,5.7,1.2c0.3,0.8,0.7,2.8-1.8,7.3s-2.2,5.3-2.2,5.3s7.5-5.3,9.3-5.7s4.7-1,6,4.7
		c1.3,5.7,4.5,9.8-2.2,10.8c-6.7,1-6.2,0.8-6.2,0.8s7.7,3.8,8.5,7.7c0.8,3.8-5,5.7-5,5.7s-4.7,2.8-7.2,1.7c-2.5-1.2-7.3-8.8-7.3-8.8
		s-6,8.2-7.8,8.5c-1.8,0.3-4.8-2.5-4.8-2.5s-4.5-1.3-4.8-2.7c-0.3-1.3,1.5-4.8,4.5-7.3s4.8-4.8,4.8-4.8s-3.5,0.8-7.5,2.3
		s-6,3.3-7.3,0.2c-1.3-3.2,1.5-4,2.2-8.7c0.7-4.7,0.2-10.5,6.2-6.8C156.6,143.2,158,144,158,144z"/>
	<path class="st3" d="M101.2,171c0,0-7.1-11.2-17.4-12.9c-10.2-1.7-16.4,1.7-16.4,1.7l-1.5,6.8c0,0,10.2-4.2,15.6-2.5
		c10.2,2.7,13.7,10.6,13.7,10.6L101.2,171z"/>
	<path class="st4" d="M96.3,173.5c0,0-4.6-7.6-13.5-9.6c-8.9-2-16.2,2.5-16.2,2.5l0.8,5.4c0,0,9.7-5.1,14.4-3.2c9.7,2.2,9,8,9,8
		L96.3,173.5z"/>
	<polygon class="st0" points="49.8,136.7 55,133 59.6,136 55.3,139.6 	"/>
	<polygon class="st5" points="17.5,186.5 115.8,7.2 218.6,186.8 	"/>
	<polyline class="st5" points="68.1,96.5 117,181 164.6,97.7 	"/>
	<g>
		<path d="M0,153.5l5.6-10.3l3,1.7l-3.6,6.6l4.3,2.4l3.4-6.2l3,1.7l-3.4,6.2l8,4.4l-2,3.7L0,153.5z"/>
		<path d="M9.4,135.5c3.1-5.6,7.4-4.1,13-1c5.6,3.1,9.2,5.9,6.1,11.5c-3.1,5.6-7.4,4.1-13,1C9.9,143.9,6.4,141,9.4,135.5z
			 M25.8,144.4c1.2-2.2-0.5-3.6-5.4-6.3c-4.9-2.7-7-3.4-8.2-1.2c-1.2,2.2,0.5,3.6,5.4,6.3C22.5,146,24.6,146.6,25.8,144.4z"/>
		<path d="M14.4,127.2l3.8-6.9c1.7-3,4.3-4,7.4-2.3c2.4,1.3,3.6,3.2,2.9,5.6l0.1,0c1.7-2.3,3.3-2,7.2,0.1c1.9,1,3,1.5,3.8,1l0.2,0.1
			l-2.2,4c-0.7,0.1-1.5-0.2-2.2-0.6l-3.6-1.8c-1.5-0.7-2.7-0.6-3.5,0.9l-1.1,2l7.8,4.3l-2,3.7L14.4,127.2z M24.5,127.9l0.8-1.5
			c1-1.8,0.8-3.2-1.2-4.3c-1.7-0.9-3-0.5-4,1.2l-1,1.8L24.5,127.9z"/>
		<path d="M22.3,112.9l3.8-6.9c1.7-3,4.3-4,7.4-2.3c2.4,1.3,3.6,3.2,2.9,5.6l0.1,0c1.7-2.3,3.3-2,7.2,0.1c1.9,1,3,1.5,3.8,1l0.2,0.1
			l-2.2,4c-0.7,0.1-1.5-0.2-2.2-0.6l-3.6-1.8c-1.5-0.7-2.7-0.6-3.5,0.9l-1.1,2l7.8,4.3l-2,3.7L22.3,112.9z M32.4,113.6l0.8-1.5
			c1-1.8,0.8-3.2-1.2-4.3c-1.7-0.9-3-0.5-4,1.2l-1,1.8L32.4,113.6z"/>
		<path d="M35.8,88.3l3,1.7l-3.6,6.6l4.3,2.4l3.4-6.2l3,1.7l-3.4,6.2l4.9,2.7l3.7-6.8l3,1.7l-5.8,10.5L30.2,98.5L35.8,88.3z"/>
		<path d="M51.3,90.1l0.5,0.3c1.7,0.9,3.1,1.1,4.2-0.9c0.6-1.1,0.5-2.6-1.1-3.5c-1.7-0.9-2.8-0.4-5,1.6c-2.9,2.7-5.1,3.4-8.2,1.8
			c-3.6-2-4.2-5.2-2.3-8.7c1.8-3.3,4.5-4.9,8.1-3l0.5,0.3l-2,3.6c-1.7-0.9-3.1-0.9-3.8,0.5c-0.9,1.7-0.1,2.7,1,3.3
			c1.1,0.6,2,0.7,3.5-0.5l2.8-2.2c2.7-2.1,4.6-2.1,6.8-0.8c3.9,2.1,4.3,5.5,2.1,9.5c-2.3,4.2-5.2,4.8-8.6,2.9l-0.7-0.4L51.3,90.1z"
			/>
		<path d="M50.2,62l3,1.7l-2.2,4l15.4,8.4l-2,3.7L49,71.4l-2.2,4l-3-1.7L50.2,62z"/>
		<path d="M51.1,60.4l5.6-10.3l3,1.7l-3.6,6.6l4.3,2.4l3.4-6.2l3,1.7l-3.4,6.2l8,4.4l-2,3.7L51.1,60.4z"/>
		<path d="M76.1,58.4L57.7,48.3l2-3.7l18.4,10.1L76.1,58.4z"/>
		<path d="M66.9,31.6l3,1.7l-3.6,6.6l4.3,2.4l3.4-6.2l3,1.7l-3.4,6.2l4.9,2.7l3.8-6.8l3,1.7l-5.8,10.5L61.3,41.8L66.9,31.6z"/>
		<path d="M86.5,39.6L68.1,29.5l2-3.7l15.4,8.4l3.6-6.6l3,1.7L86.5,39.6z"/>
		<path d="M74.8,17.3l3.3-6.1c2.8-5.2,6.9-4.1,12.3-1.2c6.5,3.6,8.7,6.6,6,11.5l-3.2,5.9L74.8,17.3z M92.5,22.2l0.9-1.6
			c1.4-2.6,0.1-4-4.9-6.7c-4.2-2.3-6.5-3.1-8.1-0.3l-0.9,1.6L92.5,22.2z"/>
	</g>
	<g>
		<path d="M175.4,43.9l-14,7.8c-2,1.1-3.2,2.4-2.2,4.3c1,1.9,2.8,1.5,4.8,0.4l14-7.8l2.2,4.1l-14,7.8c-5.1,2.8-8.2,0.5-10-2.8
			c-1.8-3.3-2.5-7,2.9-10l14-7.8L175.4,43.9z"/>
		<path d="M184.3,59.9l-11,12.5l0,0.1l13.8-7.6l2.1,3.7L169,79.7l-2.6-4.6l11.3-12.7l0-0.1l-14.1,7.8l-2.1-3.7l20.1-11.1L184.3,59.9
			z"/>
		<path d="M170.6,82.7l20.1-11.1l2.2,4.1l-20.1,11.1L170.6,82.7z"/>
		<path d="M201.2,90.4l-3.3,1.8l-2.4-4.4l-16.8,9.3l-2.2-4.1l16.8-9.3l-2.4-4.4l3.3-1.8L201.2,90.4z"/>
		<path d="M208.3,103.4l-3.3,1.8l-4-7.2l-4.7,2.6l3.7,6.8l-3.3,1.8l-3.7-6.8l-5.4,3l4.1,7.5l-3.3,1.8l-6.4-11.5l20.1-11.1
			L208.3,103.4z"/>
		<path d="M209.7,105.9l3.7,6.6c3.1,5.6-0.2,8.8-6.1,12c-7.1,3.9-11.2,4.2-14.1-1.2l-3.5-6.4L209.7,105.9z M194.9,119.4l1,1.8
			c1.6,2.8,3.6,2.4,9.1-0.6c4.6-2.5,6.7-4.2,5-7.3l-1-1.7L194.9,119.4z"/>
	</g>
	<g>
		<path d="M15.9,211.4l0,0.6c0,1.9,0.5,3.2,2.8,3.2c1.3,0,2.5-0.8,2.5-2.6c0-1.9-1-2.6-3.7-3.5c-3.7-1.3-5.4-2.8-5.4-6.3
			c0-4,2.5-6.1,6.4-6.1c3.7,0,6.4,1.6,6.4,5.6l0,0.6l-4,0c0-1.9-0.7-3.1-2.3-3.1c-1.9,0-2.4,1.2-2.4,2.4c0,1.3,0.4,2.1,2.1,2.8
			l3.2,1.4c3.1,1.4,3.9,3,3.9,5.5c0,4.4-2.7,6.3-7.2,6.3c-4.7,0-6.6-2.2-6.6-6l0-0.8L15.9,211.4z"/>
		<path d="M34.2,196.7c6.3,0,7,4.5,7,10.8c0,6.3-0.8,10.8-7.1,10.8c-6.3,0-7-4.5-7-10.8C27.1,201.2,27.9,196.7,34.2,196.7z
			 M34.2,215.2c2.5,0,2.9-2.1,2.9-7.7c0-5.5-0.4-7.7-2.9-7.7c-2.5,0-2.9,2.1-2.9,7.7C31.3,213.1,31.7,215.2,34.2,215.2z"/>
		<path d="M52.5,204.1c0-3-0.6-4.3-2.5-4.3c-2.1,0-2.6,2.1-2.6,8c0,6.3,0.9,7.4,2.7,7.4c1.5,0,2.6-0.8,2.6-5.2l4.2,0
			c0,4.5-1.1,8.3-6.6,8.3c-6.3,0-7-4.5-7-10.8c0-6.3,0.8-10.8,7.1-10.8c6,0,6.4,4.4,6.4,7.4L52.5,204.1z"/>
		<path d="M68.1,204.1c0-3-0.6-4.3-2.5-4.3c-2.1,0-2.6,2.1-2.6,8c0,6.3,0.9,7.4,2.7,7.4c1.5,0,2.6-0.8,2.6-5.2l4.2,0
			c0,4.5-1.1,8.3-6.6,8.3c-6.3,0-7-4.5-7-10.8c0-6.3,0.8-10.8,7.1-10.8c6,0,6.4,4.4,6.4,7.4L68.1,204.1z"/>
		<path d="M86.4,197.2l0,3.4l-7.4,0l0,4.9l7,0l0,3.4l-7,0l0,5.6l7.7,0l0,3.4l-11.9,0l0-20.7L86.4,197.2z"/>
		<path d="M88.8,197.2l7.7,0c3.4,0,5.5,1.8,5.5,5.3c0,2.8-1.1,4.6-3.5,5.1v0.1c2.8,0.4,3.3,1.9,3.3,6.3c0,2.2,0.1,3.3,0.9,3.7v0.2
			l-4.5,0c-0.4-0.6-0.5-1.4-0.5-2.2l-0.1-4c-0.1-1.6-0.8-2.6-2.5-2.6l-2.2,0l0,8.8l-4.2,0L88.8,197.2z M92.9,206.2l1.7,0
			c2,0,3.1-0.9,3.1-3.1c0-1.9-1-2.9-2.9-2.9l-2,0L92.9,206.2z"/>
		<path d="M120.7,204.2c0-3-0.6-4.3-2.5-4.3c-2.1,0-2.6,2.1-2.6,8c0,6.3,0.9,7.4,2.7,7.4c1.5,0,2.6-0.8,2.6-5.2l4.2,0
			c0,4.5-1.1,8.3-6.6,8.3c-6.3,0-7-4.5-7-10.8c0-6.3,0.8-10.8,7.1-10.8c6,0,6.4,4.4,6.4,7.4L120.7,204.2z"/>
		<path d="M127.4,217.9l0-20.7l4.2,0l0,17.3l7.4,0l0,3.4L127.4,217.9z"/>
		<path d="M144.8,197.2l0,14.4c0,2.1,0.5,3.6,2.4,3.6c1.9,0,2.4-1.5,2.4-3.6l0-14.4l4.2,0l0,14.4c0,5.3-3.2,6.7-6.6,6.7
			c-3.4,0-6.6-1.1-6.6-6.7l0-14.4L144.8,197.2z"/>
		<path d="M156.5,197.2l7,0c3.4,0,5.9,1.3,5.9,5.3c0,2.2-1.1,3.9-3.1,4.5v0.1c2.3,0.3,3.8,2.1,3.8,4.8c0,3.2-1.6,6.1-6.5,6.1l-7,0
			L156.5,197.2z M160.6,214.8l1.6,0c2,0,3.4-0.7,3.4-3.1c0-2.4-1.4-3.1-3.2-3.1l-1.8,0L160.6,214.8z M160.6,205.7h1.2
			c2.3,0,3.3-0.8,3.3-2.7c0-2-1-2.7-3-2.7h-1.5L160.6,205.7z"/>
		<path d="M178.3,197.2l4,0l2.3,15.3h0.1l2.4-15.3l4,0l2.4,15.3h0.1l2.3-15.3l4,0l-3.8,20.7l-4.7,0l-2.3-15h-0.1l-2.3,15l-4.7,0
			L178.3,197.2z"/>
		<path d="M202.6,213.4l0,4.5l-3.8,0l0-4.5L202.6,213.4z"/>
		<path d="M209.7,197.2l5.2,0l5.5,20.7l-4.3,0l-1-4.4l-5.5,0l-1,4.4l-4.4,0L209.7,197.2z M210.2,210.1l4.1,0l-2-9.3h-0.1
			L210.2,210.1z"/>
		<path d="M225.7,213.4l0,4.5l-3.8,0l0-4.5L225.7,213.4z"/>
	</g>
	<path d="M55.2,133.1c0,0,8.1-3.5,14.1,9.5c5.8,12.7-9.5,27.2,1.8,29.4c11.3,2.2,15.4-1.3,15.4-1.3s1.8,1.1,3.2,2.9s2,3.1,2,3.1
		s-17.4,8.8-29.8-2.8c-7.1-6.7,4.1-19.5,1.3-27.3c-2.8-7.8-7.8-7-7.8-7l2.9-2.5L55.2,133.1z"/>
</g>
<g>
</g>
<g>
</g>
<g>
</g>
<g>
</g>
<g>
</g>
<g>
</g>
</svg>
