<?xml version="1.0" standalone="no"?>
<!DOCTYPE svg PUBLIC "-//W3C//DTD SVG 20010904//EN"
 "http://www.w3.org/TR/2001/REC-SVG-20010904/DTD/svg10.dtd">
<svg version="1.0" xmlns="http://www.w3.org/2000/svg"
 width="518.000000pt" height="518.000000pt" viewBox="0 0 518.000000 518.000000"
 preserveAspectRatio="xMidYMid meet">
<metadata>
Created by potrace 1.11, written by Peter Selinger 2001-2013
</metadata>
<g transform="translate(0.000000,518.000000) scale(0.100000,-0.100000)"
fill="#000000" stroke="none">
<path d="M2103 2747 c-281 -513 -515 -940 -518 -949 -7 -17 48 -18 1060 -18
586 0 1064 3 1062 8 -158 279 -1073 1871 -1081 1879 -8 9 -138 -219 -523 -920z
m750 378 l227 -394 -224 -391 -224 -392 -49 84 c-27 46 -129 221 -227 390
l-177 306 217 396 c120 218 221 396 224 396 4 0 109 -178 233 -395z m-483
-877 l228 -393 -261 -2 c-144 -2 -345 0 -447 5 l-186 7 216 392 c118 215 216
390 218 388 2 -2 106 -180 232 -397z m999 -21 c116 -203 211 -370 211 -373 0
-2 -205 -4 -455 -4 -250 0 -455 3 -455 7 0 11 233 414 237 410 2 -3 -1 -24 -7
-48 -30 -115 -26 -120 64 -89 l58 20 -41 -45 c-22 -24 -41 -53 -41 -62 0 -11
17 -27 44 -41 47 -25 74 -21 94 15 7 12 11 5 13 -30 4 -45 3 -46 -21 -40 -34
9 -61 6 -74 -7 -8 -8 -4 -12 13 -17 23 -6 23 -6 -5 -18 -27 -11 -22 -12 56
-18 92 -7 216 5 233 22 8 8 -2 11 -33 12 -25 0 -39 3 -32 6 30 12 8 24 -40 22
l-53 -3 -3 37 c-4 42 3 46 26 17 22 -27 50 -28 101 -5 61 27 66 59 16 102 -37
32 -38 33 -13 33 14 0 36 8 49 19 l23 19 -17 55 c-25 79 -37 86 -95 56 -26
-13 -51 -25 -55 -27 -5 -2 1 14 12 37 37 72 27 84 -89 95 -87 9 -94 3 -74 -63
8 -29 13 -55 11 -57 -2 -3 -27 6 -54 19 l-50 23 60 104 c33 58 78 136 100 174
l39 69 18 -29 c10 -16 113 -195 229 -397z"/>
<path d="M2610 3190 c-8 -15 -21 -20 -51 -20 -36 0 -39 -2 -29 -19 20 -39 12
-65 -29 -90 -36 -23 -38 -25 -27 -55 6 -17 11 -32 12 -34 1 -2 12 3 23 10 18
11 23 11 31 -2 10 -17 -6 -31 -27 -23 -19 7 -17 -32 3 -52 10 -9 25 -14 35
-12 11 3 19 4 19 2 0 -8 -79 -53 -101 -57 -22 -4 -25 -1 -21 14 3 15 -2 18
-28 18 l-33 0 8 102 c6 88 5 100 -7 90 -8 -6 -21 -44 -28 -84 -16 -94 -24
-108 -60 -108 -23 0 -30 -4 -30 -20 0 -15 7 -20 25 -20 30 0 31 -6 5 -28 -14
-12 -18 -24 -14 -40 7 -25 8 -25 104 -6 15 3 7 -3 -17 -15 -30 -14 -43 -26
-43 -40 0 -36 32 -43 96 -21 31 11 72 20 90 20 28 0 33 -4 39 -29 4 -20 0 -42
-14 -70 -12 -22 -21 -51 -21 -63 0 -23 24 -66 44 -80 21 -14 -3 -19 -41 -9
-21 6 -53 11 -71 11 -32 0 -33 -1 -30 -37 l3 -38 90 -13 c107 -15 132 -8 137
38 l3 32 28 -22 c37 -29 34 -42 -14 -70 -83 -46 -104 -95 -53 -119 24 -11 30
-9 53 13 15 14 58 47 96 73 38 27 71 57 73 67 3 13 -8 29 -29 47 -33 27 -34
29 -19 56 12 21 24 28 50 29 24 1 41 10 57 30 27 34 28 52 7 167 -11 59 -13
91 -6 100 6 6 13 37 16 67 6 46 3 61 -16 94 -13 22 -29 41 -35 44 -34 11 -43
-138 -18 -292 11 -65 12 -94 4 -109 -11 -19 -12 -19 -35 9 -35 42 -41 74 -18
91 17 13 17 15 1 42 -21 36 -21 41 -2 41 19 0 19 13 1 48 -21 42 -29 85 -15
76 25 -15 1 75 -30 115 -34 42 -39 77 -16 107 23 30 18 37 -24 30 -30 -5 -42
-2 -56 14 -23 25 -32 25 -45 0z m-147 -427 c-7 -2 -19 -2 -25 0 -7 3 -2 5 12
5 14 0 19 -2 13 -5z"/>
<path d="M1985 2336 l-30 -25 55 -24 c85 -38 95 -74 59 -208 -27 -98 -18 -127
50 -167 39 -23 57 -27 121 -27 68 0 83 4 153 39 42 22 77 44 77 51 0 16 -80
90 -118 109 -44 22 -119 31 -164 18 l-36 -10 9 32 c29 102 -27 219 -112 232
-26 4 -41 -1 -64 -20z m329 -354 c15 -9 -25 -21 -74 -21 -63 -1 -84 14 -39 28
32 9 93 6 113 -7z"/>
<path d="M2265 3596 c-27 -19 -61 -84 -49 -95 5 -5 48 -29 95 -55 l86 -46 23
51 c22 47 23 53 9 77 -15 28 -75 66 -119 77 -15 3 -33 0 -45 -9z m68 -52 c46
-23 66 -44 60 -60 -7 -20 -16 -18 -78 17 -45 25 -53 34 -44 45 15 18 23 18 62
-2z"/>
<path d="M2146 3403 c-8 -21 -8 -21 96 -77 l88 -47 27 56 c24 48 25 57 13 65
-15 10 -21 5 -46 -36 -10 -17 -15 -16 -81 19 -80 42 -88 44 -97 20z"/>
<path d="M2123 3358 c-6 -7 -20 -32 -32 -55 l-21 -42 33 -19 c17 -10 59 -34
91 -52 66 -37 65 -38 106 42 18 34 18 37 2 43 -16 6 -45 -19 -54 -47 -3 -8
-10 -7 -26 3 -20 14 -20 17 -6 38 9 12 13 28 10 36 -9 25 -33 17 -46 -15 -10
-25 -15 -28 -31 -19 -18 9 -18 12 -3 41 14 26 14 32 2 45 -12 11 -17 12 -25 1z"/>
<path d="M3113 3242 c-108 -64 -119 -81 -88 -142 27 -53 56 -51 172 12 68 37
71 40 61 63 l-11 24 -85 -44 c-47 -25 -89 -45 -94 -45 -4 0 -8 9 -8 19 0 19
10 27 113 85 41 24 46 29 37 46 -14 27 -24 25 -97 -18z"/>
<path d="M2046 3224 c-11 -28 -7 -32 80 -79 83 -45 114 -51 114 -21 0 10 -168
116 -185 116 -2 0 -6 -7 -9 -16z"/>
<path d="M1995 3129 c-15 -28 -23 -54 -19 -58 5 -5 47 -29 94 -54 82 -44 86
-45 98 -27 16 26 17 25 -28 45 -22 10 -40 20 -40 22 0 2 7 15 16 28 13 20 14
28 4 40 -18 22 -26 19 -40 -15 -13 -32 -18 -34 -38 -21 -12 7 -11 14 3 41 14
27 15 34 3 41 -21 14 -23 12 -53 -42z"/>
<path d="M3177 3077 c-53 -29 -97 -56 -97 -62 0 -5 4 -17 9 -24 8 -13 18 -11
59 12 27 15 53 27 57 27 4 0 -13 -22 -39 -50 -46 -49 -46 -50 -30 -75 l16 -25
87 47 c126 68 123 66 106 89 -13 19 -15 18 -64 -9 -28 -16 -51 -25 -51 -21 0
4 18 26 40 50 34 37 39 47 30 64 -5 10 -14 21 -18 24 -4 2 -51 -19 -105 -47z"/>
<path d="M1953 3048 c-22 -27 -53 -99 -48 -108 9 -15 32 -12 39 6 5 13 19 9
83 -25 71 -37 79 -40 90 -25 17 23 12 28 -67 70 -59 31 -68 39 -67 61 2 29
-15 40 -30 21z"/>
<path d="M3270 2915 c-94 -53 -108 -67 -91 -94 7 -11 28 -3 107 41 54 30 99
59 101 64 2 5 -2 17 -9 26 -12 14 -23 11 -108 -37z"/>
<path d="M1883 2907 c-12 -5 -27 -23 -34 -40 -28 -68 46 -113 111 -67 31 22
65 20 58 -3 -3 -6 -14 -13 -26 -15 -25 -4 -46 -27 -37 -42 3 -5 19 -10 35 -10
56 0 93 87 52 123 -25 23 -58 21 -99 -4 -18 -12 -41 -18 -49 -15 -19 7 -13 31
7 31 37 1 54 39 21 47 -9 3 -27 1 -39 -5z"/>
<path d="M3380 2895 c-10 -12 -10 -18 0 -30 16 -19 22 -13 -72 -65 -78 -42
-86 -52 -68 -80 9 -15 15 -13 137 57 41 24 41 24 48 3 7 -21 14 -24 39 -14 13
5 10 17 -19 75 -20 38 -39 69 -44 69 -5 0 -14 -7 -21 -15z"/>
<path d="M1788 2751 c-16 -27 -28 -51 -28 -54 0 -4 144 -88 181 -105 3 -1 19
22 35 53 25 48 27 57 14 65 -15 10 -21 5 -45 -35 -8 -13 -17 -16 -33 -11 -21
7 -21 9 -7 37 9 16 13 34 10 39 -11 18 -31 11 -45 -15 -15 -27 -18 -29 -38
-16 -12 7 -11 14 3 41 14 27 15 34 3 41 -20 13 -21 12 -50 -40z"/>
<path d="M3385 2710 c-49 -27 -94 -51 -99 -53 -10 -3 54 -127 65 -127 4 0 12
7 19 15 10 12 8 21 -8 49 l-20 34 24 11 c22 10 27 8 42 -19 31 -54 67 -27 38
28 -15 29 -15 31 5 37 11 4 22 5 23 3 1 -1 10 -15 19 -30 19 -30 25 -32 45
-20 9 6 5 22 -19 65 -17 31 -34 57 -37 57 -4 0 -47 -23 -97 -50z"/>
<path d="M1742 2644 c-12 -8 -31 -33 -42 -54 l-20 -38 43 -25 c103 -60 149
-79 158 -65 15 23 10 34 -26 51 -60 29 -36 59 26 33 33 -14 36 -13 48 6 7 11
11 21 9 22 -19 13 -89 38 -94 34 -2 -3 -18 7 -34 23 -33 34 -38 34 -68 13z
m48 -69 c0 -28 -7 -30 -34 -10 -21 16 -13 35 15 35 14 0 19 -7 19 -25z"/>
<path d="M3455 2570 c-49 -27 -91 -54 -93 -59 -5 -16 48 -92 71 -100 52 -19
177 53 177 103 0 28 -39 106 -53 106 -7 -1 -52 -23 -102 -50z m103 -46 c-7
-40 -133 -84 -133 -46 0 16 117 82 128 72 5 -4 7 -16 5 -26z"/>
<path d="M1630 2463 c-17 -26 -30 -49 -30 -52 0 -4 43 -28 96 -56 80 -42 96
-47 104 -35 15 23 13 27 -25 50 -28 18 -33 25 -24 36 9 11 17 11 47 -2 34 -14
38 -13 49 2 7 10 13 21 13 24 0 8 -62 30 -84 30 -10 0 -27 11 -38 25 -13 17
-29 25 -49 25 -24 0 -35 -8 -59 -47z m78 -31 c4 -25 -6 -28 -33 -9 -10 8 -15
19 -11 26 12 19 41 8 44 -17z"/>
<path d="M1571 2351 c-52 -52 -33 -104 54 -146 68 -34 99 -29 122 20 22 45 9
74 -49 107 -65 38 -102 44 -127 19z m112 -67 c62 -41 38 -70 -30 -35 -58 30
-77 46 -68 60 10 17 50 6 98 -25z"/>
<path d="M1484 2199 c-14 -28 -22 -55 -17 -59 4 -4 47 -28 94 -54 73 -39 88
-44 93 -30 10 27 7 33 -26 50 -18 9 -34 18 -36 19 -2 2 3 16 12 33 11 22 12
32 3 41 -17 17 -23 14 -37 -19 -13 -33 -17 -35 -40 -20 -13 8 -12 13 4 41 15
26 16 33 5 40 -23 14 -28 11 -55 -42z"/>
<path d="M1602 1704 c-18 -12 -22 -24 -20 -52 3 -32 9 -40 46 -60 23 -13 42
-28 42 -33 0 -18 -33 -22 -45 -6 -14 20 -55 23 -55 4 0 -32 31 -57 71 -57 92
0 106 94 19 130 -18 8 -30 20 -30 31 0 23 25 25 34 4 3 -8 15 -15 26 -15 28 0
26 34 -2 54 -29 20 -58 20 -86 0z"/>
<path d="M1756 1697 c-22 -23 -26 -35 -26 -89 0 -82 17 -108 69 -108 58 0 75
25 75 111 0 77 -10 95 -61 105 -26 5 -37 1 -57 -19z m68 -52 c10 -51 -2 -107
-23 -103 -12 2 -17 17 -19 57 -4 62 2 81 22 81 8 0 16 -15 20 -35z"/>
<path d="M1919 1701 c-19 -15 -24 -30 -26 -82 -5 -85 10 -113 61 -117 47 -4
76 19 76 60 0 25 -4 29 -22 26 -15 -2 -24 -11 -26 -26 -2 -15 -9 -22 -20 -20
-14 3 -17 15 -17 67 0 44 4 66 13 69 7 2 16 -5 19 -17 3 -14 13 -21 29 -21 32
0 33 43 2 64 -30 21 -61 20 -89 -3z"/>
<path d="M2077 1700 c-25 -20 -27 -27 -27 -89 0 -86 16 -111 70 -111 43 0 70
26 70 67 0 33 -47 33 -52 1 -2 -13 -11 -24 -21 -26 -16 -3 -18 3 -15 64 3 67
20 95 33 55 4 -14 15 -21 32 -21 22 0 24 3 18 28 -8 35 -14 40 -50 48 -22 4
-38 0 -58 -16z"/>
<path d="M2610 1707 c-44 -22 -53 -152 -14 -192 9 -8 33 -15 55 -15 36 0 41 3
55 35 16 39 12 55 -14 55 -11 0 -23 -13 -30 -32 -12 -32 -13 -32 -27 -14 -16
21 -19 55 -9 105 7 34 34 43 34 11 0 -15 7 -20 29 -20 25 0 28 3 23 25 -5 27
-36 55 -62 55 -8 0 -26 -6 -40 -13z"/>
<path d="M2210 1605 l0 -105 60 0 c53 0 60 2 60 20 0 17 -7 20 -40 20 -36 0
-40 3 -40 24 0 21 5 25 38 28 25 2 37 8 37 18 0 10 -12 16 -37 18 -30 3 -38 7
-38 23 0 16 7 19 40 19 33 0 40 3 40 20 0 18 -7 20 -60 20 l-60 0 0 -105z"/>
<path d="M2346 1694 c-3 -9 -6 -56 -6 -105 0 -88 0 -89 25 -89 23 0 25 4 25
46 0 38 3 45 17 42 10 -2 19 -12 21 -23 8 -57 13 -65 36 -65 22 0 24 3 19 43
-3 23 -10 47 -15 54 -5 7 -5 14 2 18 14 9 13 68 -2 83 -19 19 -114 16 -122 -4z
m68 -20 c24 -9 20 -44 -4 -44 -15 0 -20 7 -20 25 0 27 1 28 24 19z"/>
<path d="M2730 1605 l0 -105 65 0 c58 0 65 2 65 20 0 17 -7 20 -40 20 l-40 0
0 85 c0 84 0 85 -25 85 l-25 0 0 -105z"/>
<path d="M2862 1619 c5 -102 15 -119 74 -119 54 0 64 19 64 121 0 88 0 89 -25
89 -25 0 -25 -1 -25 -85 0 -66 -3 -85 -14 -85 -20 0 -26 23 -26 101 0 68 0 69
-26 69 l-26 0 4 -91z"/>
<path d="M3020 1605 l0 -105 53 0 c29 0 61 6 70 13 23 18 30 59 14 82 -11 14
-12 25 -4 42 7 16 7 30 -1 48 -10 23 -17 25 -72 25 l-60 0 0 -105z m79 66 c17
-11 7 -41 -14 -41 -9 0 -15 9 -15 25 0 27 6 30 29 16z m11 -106 c0 -18 -5 -25
-20 -25 -15 0 -20 7 -20 25 0 18 5 25 20 25 15 0 20 -7 20 -25z"/>
<path d="M3244 1688 c3 -13 10 -50 16 -83 19 -107 18 -105 46 -105 27 0 29 4
40 75 l8 50 9 -62 c8 -60 10 -63 37 -63 27 0 28 2 44 89 21 114 20 121 -4 121
-13 0 -21 -9 -25 -27 -19 -89 -21 -91 -29 -30 -7 51 -10 57 -31 57 -20 0 -25
-6 -30 -37 -11 -66 -18 -70 -27 -15 -8 46 -12 52 -34 52 -20 0 -24 -4 -20 -22z"/>
<path d="M3531 1618 c-13 -51 -26 -99 -29 -105 -3 -9 6 -13 23 -13 18 0 29 6
32 20 3 13 14 20 28 20 15 0 26 -8 30 -20 4 -13 15 -20 32 -20 21 0 24 3 19
23 -3 12 -16 59 -27 105 -21 81 -22 82 -53 82 -31 0 -32 0 -55 -92z m62 5 c5
-26 3 -33 -9 -33 -11 0 -14 6 -10 16 3 9 6 25 6 36 0 29 6 20 13 -19z"/>
<path d="M3450 1525 c0 -18 5 -25 20 -25 15 0 20 7 20 25 0 18 -5 25 -20 25
-15 0 -20 -7 -20 -25z"/>
<path d="M3680 1525 c0 -18 5 -25 20 -25 15 0 20 7 20 25 0 18 -5 25 -20 25
-15 0 -20 -7 -20 -25z"/>
</g>
</svg>
