<?xml version="1.0" encoding="UTF-8" standalone="no"?>
<!-- Created with Inkscape (http://www.inkscape.org/) -->

<svg
   xmlns:dc="http://purl.org/dc/elements/1.1/"
   xmlns:cc="http://creativecommons.org/ns#"
   xmlns:rdf="http://www.w3.org/1999/02/22-rdf-syntax-ns#"
   xmlns:svg="http://www.w3.org/2000/svg"
   xmlns="http://www.w3.org/2000/svg"
   xmlns:sodipodi="http://sodipodi.sourceforge.net/DTD/sodipodi-0.dtd"
   xmlns:inkscape="http://www.inkscape.org/namespaces/inkscape"
   width="278.01743"
   height="46.97625"
   id="svg4646"
   version="1.1"
   inkscape:version="0.47 r22583"
   sodipodi:docname="New document 4">
  <defs
     id="defs4648">
    <inkscape:perspective
       sodipodi:type="inkscape:persp3d"
       inkscape:vp_x="0 : 526.18109 : 1"
       inkscape:vp_y="0 : 1000 : 0"
       inkscape:vp_z="744.09448 : 526.18109 : 1"
       inkscape:persp3d-origin="372.04724 : 350.78739 : 1"
       id="perspective4654" />
    <clipPath
       id="clipPath4684"
       clipPathUnits="userSpaceOnUse">
      <path
         id="path4686"
         d="m 391.181,671.811 170.078,0 0,170.078 -170.078,0 0,-170.078 z" />
    </clipPath>
    <inkscape:perspective
       id="perspective4664"
       inkscape:persp3d-origin="0.5 : 0.33333333 : 1"
       inkscape:vp_z="1 : 0.5 : 1"
       inkscape:vp_y="0 : 1000 : 0"
       inkscape:vp_x="0 : 0.5 : 1"
       sodipodi:type="inkscape:persp3d" />
    <inkscape:perspective
       id="perspective4860"
       inkscape:persp3d-origin="0.5 : 0.33333333 : 1"
       inkscape:vp_z="1 : 0.5 : 1"
       inkscape:vp_y="0 : 1000 : 0"
       inkscape:vp_x="0 : 0.5 : 1"
       sodipodi:type="inkscape:persp3d" />
  </defs>
  <sodipodi:namedview
     id="base"
     pagecolor="#ffffff"
     bordercolor="#666666"
     borderopacity="1.0"
     inkscape:pageopacity="0.0"
     inkscape:pageshadow="2"
     inkscape:zoom="15.839192"
     inkscape:cx="189.58376"
     inkscape:cy="21.3238"
     inkscape:document-units="px"
     inkscape:current-layer="layer1"
     showgrid="false"
     inkscape:window-width="1440"
     inkscape:window-height="838"
     inkscape:window-x="-8"
     inkscape:window-y="-8"
     inkscape:window-maximized="1" />
  <metadata
     id="metadata4651">
    <rdf:RDF>
      <cc:Work
         rdf:about="">
        <dc:format>image/svg+xml</dc:format>
        <dc:type
           rdf:resource="http://purl.org/dc/dcmitype/StillImage" />
        <dc:title></dc:title>
      </cc:Work>
    </rdf:RDF>
  </metadata>
  <g
     inkscape:label="Layer 1"
     inkscape:groupmode="layer"
     id="layer1"
     transform="translate(258.20355,228.4691)">
    <g
       id="g4688"
       transform="matrix(1.25,0,0,-1.25,-234.7148,-181.49285)"
       style="fill:#990033;fill-opacity:1">
      <path
         d="M 0,0 C 10.377,0 18.79,8.414 18.79,18.79 18.79,29.166 10.377,37.581 0,37.581 -10.377,37.581 -18.791,29.166 -18.791,18.79 -18.791,8.414 -10.377,0 0,0"
         style="fill:#990033;fill-opacity:1;fill-rule:nonzero;stroke:none"
         id="path4690" />
    </g>
    <g
       id="g4692"
       transform="matrix(1.25,0,0,-1.25,-234.9458,-205.24097)"
       style="fill:#ffcc00;fill-opacity:1">
      <path
         d="m 0,0 -8.084,-10.713 12.523,0 c 2.958,0 5.355,2.403 5.355,5.362 0,2.958 -2.397,5.357 -5.355,5.357 l 0,-0.003 c 2.958,0 5.355,2.397 5.355,5.353 0,2.96 -2.397,5.364 -5.355,5.364 l -12.523,0 L 0,0.007 0,0 z"
         style="fill:#ffcc00;fill-opacity:1;fill-rule:nonzero;stroke:none"
         id="path4694" />
    </g>
    <g
       id="g4696"
       transform="matrix(1.25,0,0,-1.25,-245.05155,-215.97435)">
      <path
         d="M 0,0 0,-2.139 4.854,-8.587 0,-15.021 0,-17.191 6.47,-8.587 0,0 z"
         style="fill:#ffcc00;fill-opacity:1;fill-rule:nonzero;stroke:none"
         id="path4698" />
    </g>
    <g
       id="g4700"
       transform="matrix(1.25,0,0,-1.25,-245.05155,-202.56235)"
       style="fill:#ffcc00;fill-opacity:1">
      <path
         d="M 0,0 0,-2.146 3.239,2.143 0,6.463 0,4.286 1.623,2.143 0,0 z"
         style="fill:#ffcc00;fill-opacity:1;fill-rule:nonzero;stroke:none"
         id="path4702" />
    </g>
    <g
       id="g4704"
       transform="matrix(1.25,0,0,-1.25,-195.9523,-196.77273)"
       style="fill:#990033;fill-opacity:1">
      <path
         d="M 0,0 3.466,0 C 4.376,0 5.531,-0.06 6.31,0.471 7.03,0.939 7.436,1.816 7.436,2.689 7.436,3.5 6.936,4.344 6.217,4.751 5.499,5.157 4.499,5.157 3.687,5.157 L 0,5.157 0,0 z m 0,8.966 3.404,0 c 0.876,0 1.907,-0.059 2.656,0.501 0.596,0.437 0.906,1.22 0.906,1.934 0,0.785 -0.375,1.535 -1.062,1.94 -0.718,0.406 -2.031,0.313 -2.874,0.313 l -3.03,0 0,-4.688 z m 4.591,8.503 c 1.689,0 3.439,0 4.906,-0.939 1.719,-1.093 2.627,-2.659 2.627,-4.687 0,-2.439 -1.627,-4.06 -3.877,-4.623 l 0,-0.064 c 2.657,-0.529 4.47,-2.56 4.47,-5.34 0,-1.876 -1.127,-3.533 -2.626,-4.625 -1.562,-1.157 -3.655,-1.157 -5.5,-1.157 l -9.591,0 0,21.435 9.591,0 z"
         style="fill:#990033;fill-opacity:1;fill-rule:nonzero;stroke:none"
         id="path4706" />
    </g>
    <g
       id="g4708"
       transform="matrix(1.25,0,0,-1.25,-165.7668,-204.15797)"
       style="fill:#990033;fill-opacity:1">
      <path
         d="m 0,0 c -0.093,1.717 -0.654,3.311 -2.656,3.311 -2.028,0 -2.811,-1.5 -2.97,-3.311 L 0,0 z m -5.591,-2.721 -0.035,-0.78 c 0,-1.875 1.066,-3.403 3.065,-3.403 1.407,0 2.811,1.03 2.811,2.501 l 4.249,-0.316 c 0,-0.781 -1.843,-5.468 -7.218,-5.468 -4.747,0 -7.842,3.313 -7.842,8.028 0,4.689 2.781,8.468 7.717,8.468 2.218,0 4.5,-0.998 5.813,-2.813 1.312,-1.812 1.655,-4.059 1.624,-6.217 l -10.184,0 z"
         style="fill:#990033;fill-opacity:1;fill-rule:nonzero;stroke:none"
         id="path4710" />
    </g>
    <g
       id="g4712"
       transform="matrix(1.25,0,0,-1.25,-152.84643,-211.65135)"
       style="fill:#990033;fill-opacity:1">
      <path
         d="m 0,0 0,-2.683 0.061,0 c 0.939,2.03 2.252,2.997 4.563,2.997 1.499,0 2.969,-0.467 3.905,-1.751 0.877,-1.186 0.877,-3.184 0.877,-4.62 l 0,-9.812 -4.596,0 0,8.529 c 0,1.63 0.22,4 -2.091,4 -0.813,0 -1.563,-0.47 -1.938,-1.187 C 0.313,-5.434 0.25,-6.339 0.25,-7.34 l 0,-8.529 -4.593,0 L -4.343,0 0,0 z"
         style="fill:#990033;fill-opacity:1;fill-rule:nonzero;stroke:none"
         id="path4714" />
    </g>
    <g
       id="g4716"
       transform="matrix(1.25,0,0,-1.25,-127.11568,-202.82735)"
       style="fill:#990033;fill-opacity:1">
      <path
         d="m 0,0 c 0,1.534 -0.124,4.157 -2.219,4.157 -2.624,0 -2.718,-3.436 -2.718,-5.344 0,-1.716 0.25,-4.622 2.53,-4.622 0.843,0 1.626,0.56 2,1.28 C -0.031,-3.811 0,-2.967 0,-2.184 L 0,0 z m 0.219,-8.81 0,2.469 -0.062,0 c -0.876,-1.689 -2.187,-2.782 -4.221,-2.782 -4.465,0 -5.716,4.377 -5.716,8.06 0,3.783 1.186,8.436 5.811,8.436 C -2.187,7.373 -1,6.84 0,5.374 l 0,7.25 4.593,0 0,-21.434 -4.374,0 z"
         style="fill:#990033;fill-opacity:1;fill-rule:nonzero;stroke:none"
         id="path4718" />
    </g>
    <path
       d="m -113.29705,-213.4496 -5.7425,0 0,-5.545 5.7425,0 0,5.545 z m 0,21.63375 -5.7425,0 0,-19.83625 5.7425,0 0,19.83625 z"
       style="fill:#990033;fill-opacity:1;fill-rule:nonzero;stroke:none"
       id="path4720" />
    <g
       id="g4722"
       transform="matrix(1.25,0,0,-1.25,-105.6523,-191.93348)"
       style="fill:#990033;fill-opacity:1">
      <path
         d="m 0,0 c -0.563,-0.217 -0.997,-0.656 -0.997,-1.28 0,-0.75 0.498,-1.093 1.154,-1.283 1.002,-0.281 2.436,-0.313 3.436,-0.313 1.126,0 4.31,-0.094 4.31,1.533 0,0.842 -1.027,1.029 -1.683,1.093 L 0,0 z m 0.689,11.186 c 0,-1.562 1.001,-2.406 2.53,-2.406 1.5,0 2.75,0.811 2.75,2.434 0,1.596 -1.312,2.342 -2.75,2.342 -1.468,0 -2.53,-0.872 -2.53,-2.37 M 0.844,6.469 C 0.407,6.217 0.063,5.844 0.063,5.313 0.063,4.654 0.376,4.28 0.97,4.091 1.781,3.871 3.47,3.811 4.376,3.78 L 6.377,3.687 c 2.777,-0.16 5.904,-0.75 5.904,-4.217 0,-2.124 -1.532,-3.563 -3.342,-4.311 -1.722,-0.72 -3.97,-0.846 -5.845,-0.846 -2.531,0 -8.184,0.093 -8.184,3.687 0,1.621 1.31,2.561 2.747,2.874 -1.217,0.593 -2.031,1.437 -2.031,2.843 0,1.97 1.595,2.874 3.188,3.53 -1.718,0.657 -2.813,1.97 -2.813,3.874 0,3.842 4.188,4.968 7.282,4.968 1.436,0 2.843,-0.22 4.216,-0.688 0.314,2.406 1.22,3.09 3.594,3.09 l 1.28,-0.121 0,-2.969 c -0.406,0.062 -0.812,0.155 -1.219,0.155 -0.874,0 -1.72,-0.407 -1.843,-1.372 0.875,-0.971 1.25,-1.75 1.25,-3.093 C 10.561,7.343 6.53,6.249 3.5,6.249 l -2.656,0.22 z"
         style="fill:#990033;fill-opacity:1;fill-rule:nonzero;stroke:none"
         id="path4724" />
    </g>
    <g
       id="g4726"
       transform="matrix(1.25,0,0,-1.25,-84.879425,-202.35822)"
       style="fill:#990033;fill-opacity:1">
      <path
         d="m 0,0 c 0,-1.81 -0.031,-5.686 2.593,-5.686 2.593,0 2.717,3.126 2.717,5.032 0,1.251 -0.061,2.751 -0.5,3.937 C 4.436,4.313 3.687,4.72 2.624,4.72 0.156,4.72 0,1.813 0,0 m 10.247,-0.624 c 0,-4.529 -2.966,-8.123 -7.654,-8.123 -4.874,0 -7.53,3.69 -7.53,8.28 0,4.626 2.688,8.216 7.53,8.216 4.967,0 7.654,-3.685 7.654,-8.373"
         style="fill:#990033;fill-opacity:1;fill-rule:nonzero;stroke:none"
         id="path4728" />
    </g>
    <g
       id="g4730"
       transform="matrix(1.25,0,0,-1.25,-57.380871,-197.32128)"
       style="fill:#990033;fill-opacity:1">
      <path
         d="M 0,0 3.469,0 C 4.376,0 5.53,-0.061 6.311,0.471 7.03,0.937 7.437,1.816 7.437,2.687 7.437,3.5 6.936,4.344 6.217,4.751 5.499,5.156 4.497,5.156 3.686,5.156 L 0,5.156 0,0 z m 0,8.964 3.407,0 c 0.873,0 1.904,-0.058 2.653,0.502 0.597,0.438 0.907,1.22 0.907,1.934 0,0.786 -0.374,1.534 -1.061,1.941 -0.719,0.405 -2.03,0.312 -2.875,0.312 L 0,13.653 0,8.964 z m 4.591,8.503 c 1.689,0 3.439,0 4.908,-0.938 1.717,-1.093 2.622,-2.659 2.622,-4.688 0,-2.437 -1.625,-4.058 -3.872,-4.621 l 0,-0.064 c 2.655,-0.53 4.467,-2.562 4.467,-5.34 0,-1.877 -1.123,-3.535 -2.625,-4.626 -1.562,-1.156 -3.655,-1.156 -5.5,-1.156 l -9.591,0 0,21.433 9.591,0 z"
         style="fill:#990033;fill-opacity:1;fill-rule:nonzero;stroke:none"
         id="path4732" />
    </g>
    <g
       id="g4734"
       transform="matrix(1.25,0,0,-1.25,-27.899871,-201.85353)"
       style="fill:#990033;fill-opacity:1">
      <path
         d="m 0,0 c -1.749,-0.187 -4.966,-0.593 -4.966,-2.906 0,-1.247 0.75,-2.093 2.03,-2.093 0.939,0 1.78,0.502 2.313,1.312 C 0.033,-2.689 0,-1.75 0,-0.626 L 0,0 z M 0.439,-7.591 C 0.25,-6.78 0.19,-5.936 0.221,-5.126 c -1.312,-1.87 -2.687,-2.78 -5.062,-2.78 -2.813,0 -5,1.502 -5,4.499 0,2.344 1.47,3.936 3.562,4.718 1.813,0.686 4.343,0.816 6.279,1 l 0,0.375 c 0,0.687 0.064,1.503 -0.404,2.095 -0.407,0.53 -1.189,0.748 -1.875,0.748 -1.468,0 -2.748,-0.748 -2.748,-2.31 l -4.346,0.405 c 0.472,3.84 4.22,4.967 7.562,4.967 1.627,0 3.75,-0.375 5.03,-1.438 1.625,-1.313 1.47,-3.06 1.47,-4.967 l 0,-7.403 c 0,-0.813 0.061,-1.596 0.312,-2.374 l -4.562,0 z"
         style="fill:#990033;fill-opacity:1;fill-rule:nonzero;stroke:none"
         id="path4736" />
    </g>
    <g
       id="g4738"
       transform="matrix(1.25,0,0,-1.25,-13.884491,-212.19816)"
       style="fill:#990033;fill-opacity:1">
      <path
         d="m 0,0 0,-2.684 0.061,0 c 0.94,2.031 2.249,3 4.563,3 1.502,0 2.967,-0.469 3.905,-1.753 0.877,-1.184 0.877,-3.184 0.877,-4.62 l 0,-9.81 -4.596,0 0,8.528 c 0,1.629 0.22,3.999 -2.093,3.999 -0.81,0 -1.561,-0.47 -1.936,-1.186 -0.47,-0.908 -0.53,-1.813 -0.53,-2.813 l 0,-8.528 -4.592,0 L -4.341,0 0,0 z"
         style="fill:#990033;fill-opacity:1;fill-rule:nonzero;stroke:none"
         id="path4740" />
    </g>
    <g
       id="g4742"
       transform="matrix(1.25,0,0,-1.25,19.813879,-192.36341)"
       style="fill:#990033;fill-opacity:1">
      <path
         d="m 0,0 -5.157,0 -3.342,7.189 -2.561,-3.125 0,-4.064 -4.593,0 0,21.433 4.593,0 0,-12.839 1.499,2.09 4.404,5.183 4.531,0 L -5.157,10.466 0,0 z"
         style="fill:#990033;fill-opacity:1;fill-rule:nonzero;stroke:none"
         id="path4744" />
    </g>
  </g>
</svg>
