<?xml version="1.0" encoding="utf-8"?>
<!-- Generator: Adobe Illustrator 15.0.2, SVG Export Plug-In . SVG Version: 6.00 Build 0)  -->
<!DOCTYPE svg PUBLIC "-//W3C//DTD SVG 1.1//EN" "http://www.w3.org/Graphics/SVG/1.1/DTD/svg11.dtd">
<svg version="1.1" id="Layer_1" xmlns="http://www.w3.org/2000/svg" xmlns:xlink="http://www.w3.org/1999/xlink" x="0px" y="0px"
	 width="300px" height="56px" viewBox="0 0 300 56" enable-background="new 0 0 300 56" xml:space="preserve">
<g>
	<defs>
		<rect id="SVGID_1_" x="0" width="300" height="56"/>
	</defs>
	<clipPath id="SVGID_2_">
		<use xlink:href="#SVGID_1_"  overflow="visible"/>
	</clipPath>
	<g clip-path="url(#SVGID_2_)">
		<defs>
			<rect id="SVGID_3_" x="0" width="300" height="56"/>
		</defs>
		<clipPath id="SVGID_4_">
			<use xlink:href="#SVGID_3_"  overflow="visible"/>
		</clipPath>
		<g opacity="0.8" clip-path="url(#SVGID_4_)">
			<g>
				<defs>
					<rect id="SVGID_5_" x="-1.698" y="-0.502" width="19.342" height="57.004"/>
				</defs>
				<clipPath id="SVGID_6_">
					<use xlink:href="#SVGID_5_"  overflow="visible"/>
				</clipPath>
				<rect x="2.703" clip-path="url(#SVGID_6_)" fill="#ED2127" width="10.54" height="56"/>
			</g>
		</g>
		<g opacity="0.8" clip-path="url(#SVGID_4_)">
			<g>
				<defs>
					<rect id="SVGID_7_" x="36.942" y="-0.502" width="19.344" height="57.004"/>
				</defs>
				<clipPath id="SVGID_8_">
					<use xlink:href="#SVGID_7_"  overflow="visible"/>
				</clipPath>
				<rect x="41.343" clip-path="url(#SVGID_8_)" fill="#ED2127" width="10.541" height="56"/>
			</g>
		</g>
		<g opacity="0.8" clip-path="url(#SVGID_4_)">
			<g>
				<defs>
					<rect id="SVGID_9_" x="-4.401" y="2.272" width="63.388" height="11.812"/>
				</defs>
				<clipPath id="SVGID_10_">
					<use xlink:href="#SVGID_9_"  overflow="visible"/>
				</clipPath>
				<rect x="0" y="2.774" clip-path="url(#SVGID_10_)" fill="#ED2127" width="54.585" height="10.809"/>
			</g>
		</g>
		<g opacity="0.8" clip-path="url(#SVGID_4_)">
			<g>
				<defs>
					<rect id="SVGID_11_" x="-4.401" y="41.913" width="63.388" height="11.816"/>
				</defs>
				<clipPath id="SVGID_12_">
					<use xlink:href="#SVGID_11_"  overflow="visible"/>
				</clipPath>
				<rect x="0" y="42.414" clip-path="url(#SVGID_12_)" fill="#ED2127" width="54.585" height="10.813"/>
			</g>
		</g>
		<path clip-path="url(#SVGID_4_)" fill="#343333" d="M81.464,43.122c-8.603,0-12.535-4.594-12.535-13.567v-3.177
			c0-9.081,3.932-13.518,12.535-13.518c4.473,0,8.113,0.705,9.338,1.107v8.073h-5.306l-0.443-2.223
			c-0.691-0.048-1.624-0.097-2.164-0.097c-3.538,0-5.409,1.105-5.409,6.656v3.177c0,5.6,1.871,6.757,5.556,6.757
			c1.67,0,4.08-0.15,7.766-0.403v6.104C89.181,42.467,85.937,43.122,81.464,43.122"/>
		<path clip-path="url(#SVGID_4_)" fill="#343333" d="M110.197,29.756h-2.853c-3.929,0-5.603,0.455-5.603,3.681v1.16
			c0,2.221,1.33,2.826,3.195,2.826c2.21,0,4.376-0.808,5.26-1.314V29.756z M110.641,42.415v-1.867
			c-1.872,1.264-5.114,2.574-8.849,2.574c-5.261,0-8.212-2.725-8.212-8.222v-1.16c0-7.668,5.704-8.522,13.667-8.522h2.606v-1.565
			c0-3.478-0.739-4.186-5.163-4.186c-1.034,0-1.963,0.051-3.049,0.102l-0.493,2.22h-5.503v-7.213
			c1.571-0.556,6.095-1.715,10.813-1.715c8.75,0,11.997,2.875,11.997,10.792v12.104l2.209,0.251v6.407H110.641z"/>
	</g>
	<polygon clip-path="url(#SVGID_2_)" fill="#343333" points="122.681,42.415 122.681,36.008 124.946,35.757 124.946,9.732 
		122.681,9.482 122.681,3.075 133.498,3.075 133.498,35.757 135.759,36.008 135.759,42.415 	"/>
	<g clip-path="url(#SVGID_2_)">
		<defs>
			<rect id="SVGID_13_" x="0" width="300" height="56"/>
		</defs>
		<clipPath id="SVGID_14_">
			<use xlink:href="#SVGID_13_"  overflow="visible"/>
		</clipPath>
		<path clip-path="url(#SVGID_14_)" fill="#343333" d="M155.667,25.165c0-3.175-0.637-5.95-5.011-5.95
			c-4.277,0-4.967,2.826-4.967,5.95v0.405h9.978V25.165z M145.641,30.411v0.402c0,3.683,0.492,5.649,6.54,5.649
			c2.85,0,7.764-0.201,10.517-0.506v5.902c-2.21,0.555-6.143,1.263-10.912,1.263c-10.323,0-14.65-3.783-14.65-13.667V26.83
			c0-9.58,4.965-13.969,13.521-13.969c10.471,0,13.371,6.957,13.371,14.575v2.975H145.641z"/>
		<path clip-path="url(#SVGID_14_)" fill="#343333" d="M184.573,20.021c-1.476-0.251-3.147-0.401-4.226-0.401
			c-3.493,0-5.212,1.007-5.212,6.758v3.478c0,4.793,1.277,6.456,4.817,6.456c1.623,0,3.245-0.354,4.62-0.956V20.021z
			 M185.165,42.415v-1.513c-1.967,1.262-4.622,2.22-7.967,2.22c-6.684,0-10.615-4.189-10.615-13.267v-3.478
			c0-10.039,4.864-13.518,12.731-13.518c2.014,0,3.586,0.15,5.21,0.403V8.673l-2.51-0.202V3.075h11.065v32.682l2.26,0.251v6.407
			H185.165z"/>
		<path clip-path="url(#SVGID_14_)" fill="#343333" d="M215.202,26.425c0-5.041-1.478-6.755-4.97-6.755
			c-3.439,0-4.913,1.714-4.913,6.755v3.13c0,5.042,1.474,6.757,4.913,6.757c3.492,0,4.97-1.715,4.97-6.757V26.425z M210.232,43.122
			c-8.501,0-13.417-4.037-13.417-13.567v-3.13c0-9.53,4.916-13.564,13.417-13.564c8.606,0,13.522,4.034,13.522,13.564v3.13
			C223.755,39.085,218.839,43.122,210.232,43.122"/>
		<path clip-path="url(#SVGID_14_)" fill="#343333" d="M245.428,42.415V24.158c0-3.379-0.59-4.538-3.291-4.538
			c-1.625,0-3.734,0.653-5.998,1.562v14.575l2.264,0.251v6.407h-13.076v-6.407l2.258-0.251V20.224l-2.258-0.253v-6.405h10.32v2.371
			c2.852-1.866,5.996-3.076,9.143-3.076c8.457,0,9.242,5.094,9.242,11.298v11.599l2.265,0.251v6.407H245.428z"/>
	</g>
	<path clip-path="url(#SVGID_2_)" fill="#343333" d="M260.328,3.075h8.943v6.657h-8.943V3.075z M258.259,42.415v-6.458l2.265-0.2
		V20.224l-2.265-0.253v-6.405h10.814v22.191l2.261,0.2v6.458H258.259z"/>
	<g clip-path="url(#SVGID_2_)">
		<defs>
			<rect id="SVGID_15_" x="0" width="300" height="56"/>
		</defs>
		<clipPath id="SVGID_16_">
			<use xlink:href="#SVGID_15_"  overflow="visible"/>
		</clipPath>
		<path clip-path="url(#SVGID_16_)" fill="#343333" d="M289.531,29.756h-2.852c-3.933,0-5.605,0.455-5.605,3.681v1.16
			c0,2.221,1.328,2.826,3.195,2.826c2.213,0,4.376-0.808,5.262-1.314V29.756z M289.973,42.415v-1.867
			c-1.867,1.264-5.113,2.574-8.85,2.574c-5.258,0-8.206-2.725-8.206-8.222v-1.16c0-7.668,5.699-8.522,13.663-8.522h2.605v-1.565
			c0-3.478-0.738-4.186-5.16-4.186c-1.029,0-1.967,0.051-3.049,0.102l-0.49,2.22h-5.508v-7.213
			c1.574-0.556,6.096-1.715,10.814-1.715c8.752,0,11.996,2.875,11.996,10.792v12.104L300,36.008v6.407H289.973z"/>
	</g>
</g>
</svg>
