<?xml version="1.0" encoding="utf-8"?>
<!-- Generator: Adobe Illustrator 18.0.0, SVG Export Plug-In . SVG Version: 6.00 Build 0)  -->
<!DOCTYPE svg PUBLIC "-//W3C//DTD SVG 1.1//EN" "http://www.w3.org/Graphics/SVG/1.1/DTD/svg11.dtd">
<svg version="1.1" id="Layer_1" xmlns="http://www.w3.org/2000/svg" xmlns:xlink="http://www.w3.org/1999/xlink" x="0px" y="0px"
	 viewBox="0 0 612 579.8" style="enable-background:new 0 0 612 579.8;" xml:space="preserve">
<style type="text/css">
	.st0{fill:#FFFFFF;}
	.st1{fill:#FFFFFF;stroke:#FCE828;}
	.st2{fill:none;stroke:#FFFFFF;stroke-width:7;}
</style>
<g>
	<path class="st0" d="M278.7,180.4l-1.9-8.9c0,0-1.4-2.7-3-5.4c-1.9-2.7-1.9-2.7-1.9-2.7s6.5-3.5,12.5-7.6c5.7-4.1,8.4-6.5,8.4-6.5
		l1.9-8.9l-6.2-12.7c0,0,8.4-2.2,12.5-0.8c4.1,1.4,6.5,1.9,6.5,1.9l8.9-14.6l12.5,14.1c0,0,7.1-4.1,12.7-3.5c5.7,0.5,7.1,0,7.1,0
		l-8.9,16l0.8,10.6c0,0,12.5,16,16,22c3.5,6.2,3,19.5,3,19.5l-6.5-4.3c0,0,2.7,15.5,6.2,23c3.5,7.6,6.5,13.6,6.5,13.6l-7.9,2.2
		l-3.5-2.7c0,0,5.7,12.5,8.4,16.3c2.7,4.1,3,7.1,3,7.1s-8.9,0-9.8,5.4c-1.4,10.6,8.4,16,10.6,22c2.2,6.2,4.1,8.4,4.1,8.4
		s11.9-1.9,7.9-23.9c-4.1-22-7.6-38.5-6.2-46.9c1.4-8.4-1.9-27.9,0-33.1c1.9-5.4,4.1-11.9,4.1-11.9l7.9,2.2c0,0,6.2,14.6,10,20.3
		c4.1,5.7-4.1,17.6-2.7,23.9s-6.2,13.3-6.2,13.3s12.7,50.7,7.9,60.5s-14.1,19.8-26.6,14.6c0,0-17.4,9.8-6.2,22
		c11.1,7.6,25.5,13.3-5.4,30.9c-30.9,17.6-30.4,29.6-35.8,27.4c-5.4-2.2-7.6-6.2-11.4-4.1c-4.1,2.2,0-18.4,3.5-19.8
		c3.5-1.4,30.9-15.5,30.1-20.3c-0.8-4.9-21.2-18.2-21.2-18.2s3.5,17.6-0.8,21.2c-7.9,5.7-21.2,1.4-32.8,0c-11.4-1.4-23.3-0.8-24.4-3
		c-0.8-2.2-4.9-9.2-0.5-13.3c4.3-4.1-3.5-2.2-3.5-2.2s7.1-7.1,19-3.5c11.9,3.5,14.9,5.4,19.5,5.4c4.3,0,7.1-1.9,7.1-1.9
		s-17.4-12.5-16-25.5c1.4-13.3,11.4-28.2,11.4-28.2s-1.9-2.2-1.9-8.4c0-6.2,0-9.2,0-9.2s-24.4,0.8-30.9,4.3
		c-6.5,3.5-21.2,11.4-28.2,2.7c-7.1-8.9,4.9-14.1,8.9-14.6c4.1-0.5,3-6.2,19.8-4.9c3,1.4,11.1-6.2,11.1-6.2s-6.2-0.8-10.6,0.5
		c-4.3,1.4-13.3,4.3-25.2,5.7c-11.9,1.4-16.8,3-16.8,3s-3.5-6.2,2.2-5.7c5.7,0.5-5.4,0-4.1-6.2c1.4-6.2,10-6.5,10-6.5l1.4-4.3
		l-15.5-3.5l-0.3-6l20.3-3.5l9.2-48.5l4.1-4.3l1.4,6.2l-4.6,46.9l18.2,2.7l-0.5,6.5l-14.9,2.7c0,0,0.5,2.2,2.7,1.9
		c2.2-0.5,14.1-3,19.8-3.5c5.7-0.5,6.2,0,12.7-6.2c6.5-6.2,15.5-8.9,15.5-8.9l-0.5-4.9c0,0-3,4.3-10.6,3.5c-7.6-0.8-7.6-1.9-7.9-7.9
		c-5.4-4.1-0.5-10.6-0.5-10.6l3.5,4.1c0,0,4.3-2.2,7.1-1.9c2.7,0.5,4.9,0.5,4.9,0.5s-3-1.9-4.3-4.3c-1.4-2.7-2.2-5.4-2.2-5.4
		s-1.9,0.8-4.9,0c-3-0.8-3-0.8-3-0.8L278.7,180.4z"/>
	<path class="st0" d="M427.9,466.8l-14.4-4.1c0,0,4.6-6,13-6c11.7-0.8,14.4,4.1,14.4,4.1s3.5,2.2,3.3-0.8
		c-0.5-3.3-3.3-11.7-2.7-16.8c0.5-4.9,4.1-25.8,4.1-25.8s8.9-0.8,8.9,3.5c0,4.3-2.2,19.5-2.2,24.4c0,4.9,0,14.1,0,14.1
		s6,0.8,15.5-0.5s15.5,0.8,15.5,0.8l-8.9,6l25.8,0.8c0,0-6,8.9-46.9,8.1c-41.2-0.8-41.5-1.9-41.5-1.9L427.9,466.8z"/>
	<path class="st0" d="M428.4,378.1c0,0-5.4-14.9-6-19.8c-0.5-4.9-4.6-17.1-4.6-17.1s12.7-3.3,15.7-2.2c3,1.1,10.3,0,11.7,1.9
		c1.4,1.9,1.4,1.9,1.4,1.9s3.3-1.4,7.6-0.5c4.6,0.8,14.4,0.8,15.5,3.3c0.8,2.2,1.9,7.6-4.9,19.8c-6.8,12.2-6,14.4-6,14.4
		s20.3-14.4,25.2-15.5c4.9-1.1,12.7-2.7,16.3,12.7c3.5,15.5,12.2,26.6-6,29.3c-18.2,2.7-16.8,2.2-16.8,2.2s20.9,10.3,23,20.9
		c2.2,10.3-13.6,15.5-13.6,15.5s-12.7,7.6-19.5,4.6c-6.8-3.3-19.8-23.9-19.8-23.9s-16.3,22.2-21.2,23s-13-6.8-13-6.8
		s-12.2-3.5-13-7.3c-0.8-3.5,4.1-13,12.2-19.8c8.1-6.8,13-13,13-13s-9.5,2.2-20.3,6.2s-16.3,8.9-19.8,0.5c-3.5-8.7,4.1-10.8,6-23.6
		c1.9-12.7,0.5-28.5,16.8-18.4C424.6,375.9,428.4,378.1,428.4,378.1z"/>
	<path class="st0" d="M274.4,451.3c0,0-19.3-30.4-47.2-35c-27.7-4.6-44.5,4.6-44.5,4.6l-4.1,18.4c0,0,27.7-11.4,42.3-6.8
		c27.7,7.3,37.1,28.7,37.1,28.7L274.4,451.3z"/>
	<path class="st1" d="M261.1,458.1c0,0-12.5-20.6-36.6-26s-43.9,6.8-43.9,6.8l2.2,14.6c0,0,26.3-13.8,39-8.7
		c26.3,6,24.4,21.7,24.4,21.7L261.1,458.1z"/>
	<polygon class="st0" points="135,358.3 149.1,348.3 161.6,356.4 149.9,366.2 	"/>
	<polygon class="st2" points="47.5,493.3 314,7.2 592.7,494.2 	"/>
	<polyline class="st2" points="184.7,249.3 317.3,478.4 446.3,252.6 	"/>
	<g>
		<path class="st0" d="M0,403.9l15.2-27.9l8.1,4.6l-9.8,17.9l11.7,6.5l9.2-16.8l8.1,4.6l-9.2,16.8L55,421.5l-5.4,10L0,403.9z"/>
		<path class="st0" d="M25.5,355.1c8.4-15.2,20.1-11.1,35.3-2.7c15.2,8.4,24.9,16,16.5,31.2c-8.4,15.2-20.1,11.1-35.3,2.7
			S17.4,370,25.5,355.1z M70,379.2c3.3-6-1.4-9.8-14.6-17.1c-13.3-7.3-19-9.2-22.2-3.3s1.4,9.8,14.6,17.1
			C61,383.5,66.7,385.2,70,379.2z"/>
		<path class="st0" d="M39,332.5l10.3-18.7c4.6-8.1,11.7-10.8,20.1-6.2c6.5,3.5,9.8,8.7,7.9,15.2h0.3c4.6-6.2,8.9-5.4,19.5,0.3
			c5.2,2.7,8.1,4.1,10.3,2.7l0.5,0.3l-6,10.8c-1.9,0.3-4.1-0.5-6-1.6l-9.8-4.9c-4.1-1.9-7.3-1.6-9.5,2.4l-3,5.4l21.2,11.7l-5.4,10
			L39,332.5z M66.4,334.4l2.2-4.1c2.7-4.9,2.2-8.7-3.3-11.7c-4.6-2.4-8.1-1.4-10.8,3.3l-2.7,4.9L66.4,334.4z"/>
		<path class="st0" d="M60.5,293.8l10.3-18.7c4.6-8.1,11.7-10.8,20.1-6.2c6.5,3.5,9.8,8.7,7.9,15.2H99c4.6-6.2,8.9-5.4,19.5,0.3
			c5.2,2.7,8.1,4.1,10.3,2.7l0.5,0.3l-6,10.8c-1.9,0.3-4.1-0.5-6-1.6l-9.8-4.9c-4.1-1.9-7.3-1.6-9.5,2.4l-3,5.4l21.2,11.7l-5.4,10
			L60.5,293.8z M87.9,295.7l2.2-4.1c2.7-4.9,2.2-8.7-3.3-11.7c-4.6-2.4-8.1-1.4-10.8,3.3l-2.7,4.9L87.9,295.7z"/>
		<path class="st0" d="M97.1,227.1l8.1,4.6l-9.8,17.9l11.7,6.5l9.2-16.8l8.1,4.6l-9.2,16.8l13.3,7.3l10-18.4l8.1,4.6L131,282.7
			l-49.1-27.9L97.1,227.1z"/>
		<path class="st0" d="M139.1,231.9l1.4,0.8c4.6,2.4,8.4,3,11.4-2.4c1.6-3,1.4-7.1-3-9.5c-4.6-2.4-7.6-1.1-13.6,4.3
			c-7.9,7.3-13.8,9.2-22.2,4.9c-9.8-5.4-11.4-14.1-6.2-23.6c4.9-8.9,12.2-13.3,22-8.1l1.4,0.8l-5.4,9.8c-4.6-2.4-8.4-2.4-10.3,1.4
			c-2.4,4.6-0.3,7.3,2.7,8.9c3,1.6,5.4,1.9,9.5-1.4l7.6-6c7.3-5.7,12.5-5.7,18.4-2.2c10.6,5.7,11.7,14.9,5.7,25.8
			c-6.2,11.4-14.1,13-23.3,7.9l-1.9-1.1L139.1,231.9z"/>
		<path class="st0" d="M136.1,155.8l8.1,4.6l-6,10.8L180,194l-5.4,10l-41.8-22.8l-6,10.8l-8.1-4.6L136.1,155.8z"/>
		<path class="st0" d="M138.6,151.4l15.2-27.9l8.1,4.6l-9.8,17.9l11.7,6.5l9.2-16.8l8.1,4.6l-9.2,16.8l21.7,11.9l-5.4,10
			L138.6,151.4z"/>
		<path class="st0" d="M206.4,146l-49.9-27.4l5.4-10l49.9,27.4L206.4,146z"/>
		<path class="st0" d="M181.4,73.3l8.1,4.6l-9.8,17.9l11.7,6.5l9.2-16.8l8.1,4.6l-9.2,16.8l13.3,7.3l10.3-18.4l8.1,4.6l-15.7,28.5
			L166.2,101L181.4,73.3z"/>
		<path class="st0" d="M234.6,95l-49.9-27.4l5.4-10l41.8,22.8l9.8-17.9l8.1,4.6L234.6,95z"/>
		<path class="st0" d="M202.8,34.5l8.9-16.5c7.6-14.1,18.7-11.1,33.4-3.3c17.6,9.8,23.6,17.9,16.3,31.2l-8.7,16L202.8,34.5z
			 M250.8,47.8l2.4-4.3c3.8-7.1,0.3-10.8-13.3-18.2c-11.4-6.2-17.6-8.4-22-0.8l-2.4,4.3L250.8,47.8z"/>
	</g>
	<g>
		<path class="st0" d="M475.6,106.7l-38,21.2c-5.4,3-8.7,6.5-6,11.7c2.7,5.2,7.6,4.1,13,1.1l38-21.2l6,11.1l-38,21.2
			c-13.8,7.6-22.2,1.4-27.1-7.6c-4.9-8.9-6.8-19,7.9-27.1l38-21.2L475.6,106.7z"/>
		<path class="st0" d="M499.7,150.1L469.9,184v0.3l37.4-20.6l5.7,10l-54.8,30.1l-7.1-12.5l30.6-34.4v-0.3l-38.2,21.2l-5.7-10
			l54.5-30.1L499.7,150.1z"/>
		<path class="st0" d="M462.6,211.9l54.5-30.1l6,11.1L468.6,223L462.6,211.9z"/>
		<path class="st0" d="M545.6,232.8l-8.9,4.9l-6.5-11.9l-45.6,25.2l-6-11.1l45.6-25.2l-6.5-11.9l8.9-4.9L545.6,232.8z"/>
		<path class="st0" d="M564.8,268l-8.9,4.9L545,253.4l-12.7,7.1l10,18.4l-8.9,4.9l-10-18.4l-14.6,8.1l11.1,20.3l-8.9,4.9l-17.4-31.2
			l54.5-30.1L564.8,268z"/>
		<path class="st0" d="M568.6,274.8l10,17.9c8.4,15.2-0.5,23.9-16.5,32.5c-19.3,10.6-30.4,11.4-38.2-3.3l-9.5-17.4L568.6,274.8z
			 M528.5,311.4l2.7,4.9c4.3,7.6,9.8,6.5,24.7-1.6c12.5-6.8,18.2-11.4,13.6-19.8l-2.7-4.6L528.5,311.4z"/>
	</g>
	<g>
		<path class="st0" d="M43.1,560.9v1.6c0,5.2,1.4,8.7,7.6,8.7c3.5,0,6.8-2.2,6.8-7.1c0-5.2-2.7-7.1-10-9.5
			c-10-3.5-14.6-7.6-14.6-17.1c0-10.8,6.8-16.5,17.4-16.5c10,0,17.4,4.3,17.4,15.2v1.6H56.7c0-5.2-1.9-8.4-6.2-8.4
			c-5.2,0-6.5,3.3-6.5,6.5c0,3.5,1.1,5.7,5.7,7.6l8.7,3.8c8.4,3.8,10.6,8.1,10.6,14.9c0,11.9-7.3,17.1-19.5,17.1
			c-12.7,0-17.9-6-17.9-16.3v-2.2H43.1z"/>
		<path class="st0" d="M92.7,521c17.1,0,19,12.2,19,29.3c0,17.1-2.2,29.3-19.3,29.3s-19-12.2-19-29.3C73.5,533.2,75.7,521,92.7,521z
			 M92.7,571.2c6.8,0,7.9-5.7,7.9-20.9c0-14.9-1.1-20.9-7.9-20.9c-6.8,0-7.9,5.7-7.9,20.9S86,571.2,92.7,571.2z"/>
		<path class="st0" d="M142.4,541.1c0-8.1-1.6-11.7-6.8-11.7c-5.7,0-7.1,5.7-7.1,21.7c0,17.1,2.4,20.1,7.3,20.1
			c4.1,0,7.1-2.2,7.1-14.1h11.4c0,12.2-3,22.5-17.9,22.5c-17.1,0-19-12.2-19-29.3c0-17.1,2.2-29.3,19.3-29.3
			c16.3,0,17.4,11.9,17.4,20.1L142.4,541.1z"/>
		<path class="st0" d="M184.7,541.1c0-8.1-1.6-11.7-6.8-11.7c-5.7,0-7.1,5.7-7.1,21.7c0,17.1,2.4,20.1,7.3,20.1
			c4.1,0,7.1-2.2,7.1-14.1h11.4c0,12.2-3,22.5-17.9,22.5c-17.1,0-19-12.2-19-29.3c0-17.1,2.2-29.3,19.3-29.3
			c16.3,0,17.4,11.9,17.4,20.1L184.7,541.1z"/>
		<path class="st0" d="M234.3,522.4v9.2h-20.1v13.3h19v9.2h-19v15.2h20.9v9.2h-32.3v-56.1H234.3z"/>
		<path class="st0" d="M240.8,522.4h20.9c9.2,0,14.9,4.9,14.9,14.4c0,7.6-3,12.5-9.5,13.8v0.3c7.6,1.1,8.9,5.2,8.9,17.1
			c0,6,0.3,8.9,2.4,10v0.5h-12.2c-1.1-1.6-1.4-3.8-1.4-6l-0.3-10.8c-0.3-4.3-2.2-7.1-6.8-7.1h-6v23.9h-11.4L240.8,522.4z
			 M251.9,546.8h4.6c5.4,0,8.4-2.4,8.4-8.4c0-5.2-2.7-7.9-7.9-7.9h-5.4L251.9,546.8z"/>
		<path class="st0" d="M327.3,541.3c0-8.1-1.6-11.7-6.8-11.7c-5.7,0-7.1,5.7-7.1,21.7c0,17.1,2.4,20.1,7.3,20.1
			c4.1,0,7.1-2.2,7.1-14.1h11.4c0,12.2-3,22.5-17.9,22.5c-17.1,0-19-12.2-19-29.3c0-17.1,2.2-29.3,19.3-29.3
			c16.3,0,17.4,11.9,17.4,20.1H327.3z"/>
		<path class="st0" d="M345.5,578.5v-56.1h11.4v46.9h20.1v9.2H345.5z"/>
		<path class="st0" d="M392.6,522.4v39c0,5.7,1.4,9.8,6.5,9.8c5.2,0,6.5-4.1,6.5-9.8v-39H417v39c0,14.4-8.7,18.2-17.9,18.2
			c-9.2,0-17.9-3-17.9-18.2v-39H392.6z"/>
		<path class="st0" d="M424.4,522.4h19c9.2,0,16,3.5,16,14.4c0,6-3,10.6-8.4,12.2v0.3c6.2,0.8,10.3,5.7,10.3,13
			c0,8.7-4.3,16.5-17.6,16.5h-19L424.4,522.4z M435.5,570.1h4.3c5.4,0,9.2-1.9,9.2-8.4c0-6.5-3.8-8.4-8.7-8.4h-4.9V570.1z
			 M435.5,545.4h3.3c6.2,0,8.9-2.2,8.9-7.3c0-5.4-2.7-7.3-8.1-7.3h-4.1V545.4z"/>
		<path class="st0" d="M483.5,522.4h10.8l6.2,41.5h0.3l6.5-41.5h10.8l6.5,41.5h0.3l6.2-41.5H542l-10.3,56.1H519l-6.2-40.7h-0.3
			l-6.2,40.7h-12.7L483.5,522.4z"/>
		<path class="st0" d="M549.4,566.3v12.2h-10.3v-12.2H549.4z"/>
		<path class="st0" d="M568.6,522.4h14.1l14.9,56.1H586l-2.7-11.9h-14.9l-2.7,11.9h-11.9L568.6,522.4z M570,557.3h11.1l-5.4-25.2
			h-0.3L570,557.3z"/>
		<path class="st0" d="M612,566.3v12.2h-10.3v-12.2H612z"/>
	</g>
	<path class="st0" d="M149.7,348.5c0,0,22-9.5,38.2,25.8c15.7,34.4-25.8,73.8,4.9,79.7c30.6,6,41.8-3.5,41.8-3.5s4.9,3,8.7,7.9
		c3.8,4.9,5.4,8.4,5.4,8.4s-47.2,23.9-80.8-7.6c-19.3-18.2,11.1-52.9,3.5-74s-21.2-19-21.2-19l7.9-6.8L149.7,348.5z"/>
</g>
<g>
</g>
<g>
</g>
<g>
</g>
<g>
</g>
<g>
</g>
<g>
</g>
</svg>
